<svg viewBox="0 0 40 40" fill="none" xmlns="http://www.w3.org/2000/svg">
    <path d="M19.311 17.196c-4.666-1.416-6.95 2.465-6.973 2.503a.625.625 0 001.085.622c.071-.126 1.8-3.057 5.526-1.928a.624.624 0 10.362-1.197z" fill="#000"/>
    <path d="M38.43 22.013a.607.607 0 00-.487-.207l-3.023.113c-.741-2.613-2.133-4.558-4.143-5.792-.043-.461-.006-1.788 1.217-4.277a.624.624 0 00-.4-.88c-2.843-.759-5.648 1.907-6.517 2.835-1.654-.416-3.366-.536-4.699-.592-7.049-.308-12.828 3.179-14.837 8.905-1.206-.28-2.563-1.495-3.032-1.996a.624.624 0 00-1.08.385c-.117 1.753.28 3.125 1.18 4.078.802.851 1.804 1.14 2.41 1.239.729 4.046 2.572 6.98 5.36 8.524.054.776.133 3.008.19 5.01.009.338.286.607.624.607h5.056a.626.626 0 00.61-.49l.568-2.562c.976.216 1.676.334 2.925.334 1.757 0 2.462-.243 3.63-.646l.121-.041.568 2.9a.625.625 0 00.613.505h4.932c.345 0 .625-.28.625-.625v-5.953c1.707-1.45 2.69-2.444 3.395-4.933l3.12-.474a.625.625 0 00.524-.53l.705-4.93a.625.625 0 00-.154-.507zm-1.722 4.801l-3.063.465a.624.624 0 00-.512.463c-.65 2.541-1.488 3.332-3.32 4.877a.625.625 0 00-.222.478v5.618h-3.792l-.605-3.096a.624.624 0 00-.809-.473c-.302.098-.567.19-.81.274-1.115.384-1.676.577-3.223.577-1.327 0-1.95-.142-3.19-.426l-.07-.016a.623.623 0 00-.75.474l-.595 2.686h-3.946c-.145-5.117-.16-5.123-.558-5.323-2.73-1.384-4.435-4.155-5.068-8.24a.625.625 0 00-.618-.528h-.005c-.017 0-1.206-.019-2.033-.896-.41-.435-.675-1.015-.791-1.732.846.664 2.056 1.41 3.236 1.429h.01a.625.625 0 00.598-.442c1.671-5.46 7.077-8.805 13.753-8.522 2.03.087 3.51.287 4.793.647a.624.624 0 00.647-.2c.026-.03 2.381-2.787 4.741-2.822-1.378 3.139-.933 4.504-.873 4.66a.627.627 0 00.274.319c1.964 1.119 3.286 3.018 3.929 5.645.069.281.32.477.607.477h.024l2.775-.104-.534 3.731z" fill="#000"/>
    <path d="M28.4 20.397a2.294 2.294 0 00-2.29 2.291 2.294 2.294 0 002.29 2.292 2.294 2.294 0 002.293-2.292 2.294 2.294 0 00-2.292-2.291zm0 3.333a1.043 1.043 0 010-2.083 1.043 1.043 0 010 2.083zM8.953 8.18a.603.603 0 00.83-.194l.628-1.011 1.228 3.605a.602.602 0 101.14-.388l-1.638-4.81a.602.602 0 00-1.082-.124L8.76 7.35a.602.602 0 00.194.83z" fill="#000"/>
    <path d="M11.225 14.325A6.232 6.232 0 0017.45 8.1a6.232 6.232 0 00-6.225-6.225A6.232 6.232 0 005 8.1a6.232 6.232 0 006.225 6.225zm0-11.25A5.03 5.03 0 0116.25 8.1a5.03 5.03 0 01-5.025 5.025A5.03 5.03 0 016.2 8.1a5.03 5.03 0 015.025-5.025z" fill="#000"/>
</svg>
